<svg width="32" height="24" viewBox="0 0 32 24" fill="none" xmlns="http://www.w3.org/2000/svg">
  <rect width="32" height="24" fill="#B22234"/>
  <rect y="0" width="32" height="2.4" fill="#FFFFFF"/>
  <rect y="2.4" width="32" height="2.4" fill="#FFFFFF"/>
  <rect y="4.8" width="32" height="2.4" fill="#FFFFFF"/>
  <rect y="7.2" width="32" height="2.4" fill="#FFFFFF"/>
  <rect y="9.6" width="32" height="2.4" fill="#FFFFFF"/>
  <rect y="12" width="32" height="2.4" fill="#FFFFFF"/>
  <rect y="14.4" width="32" height="2.4" fill="#FFFFFF"/>
  <rect y="16.8" width="32" height="2.4" fill="#FFFFFF"/>
  <rect y="19.2" width="32" height="2.4" fill="#FFFFFF"/>
  <rect y="21.6" width="32" height="2.4" fill="#FFFFFF"/>
  <rect width="12.8" height="9.6" fill="#3C3B6E"/>
  <circle cx="1.6" cy="1.6" r="0.4" fill="#FFFFFF"/>
  <circle cx="3.2" cy="1.6" r="0.4" fill="#FFFFFF"/>
  <circle cx="4.8" cy="1.6" r="0.4" fill="#FFFFFF"/>
  <circle cx="6.4" cy="1.6" r="0.4" fill="#FFFFFF"/>
  <circle cx="8" cy="1.6" r="0.4" fill="#FFFFFF"/>
  <circle cx="9.6" cy="1.6" r="0.4" fill="#FFFFFF"/>
  <circle cx="11.2" cy="1.6" r="0.4" fill="#FFFFFF"/>
  <circle cx="1.6" cy="3.2" r="0.4" fill="#FFFFFF"/>
  <circle cx="3.2" cy="3.2" r="0.4" fill="#FFFFFF"/>
  <circle cx="4.8" cy="3.2" r="0.4" fill="#FFFFFF"/>
  <circle cx="6.4" cy="3.2" r="0.4" fill="#FFFFFF"/>
  <circle cx="8" cy="3.2" r="0.4" fill="#FFFFFF"/>
  <circle cx="9.6" cy="3.2" r="0.4" fill="#FFFFFF"/>
  <circle cx="11.2" cy="3.2" r="0.4" fill="#FFFFFF"/>
  <circle cx="1.6" cy="4.8" r="0.4" fill="#FFFFFF"/>
  <circle cx="3.2" cy="4.8" r="0.4" fill="#FFFFFF"/>
  <circle cx="4.8" cy="4.8" r="0.4" fill="#FFFFFF"/>
  <circle cx="6.4" cy="4.8" r="0.4" fill="#FFFFFF"/>
  <circle cx="8" cy="4.8" r="0.4" fill="#FFFFFF"/>
  <circle cx="9.6" cy="4.8" r="0.4" fill="#FFFFFF"/>
  <circle cx="11.2" cy="4.8" r="0.4" fill="#FFFFFF"/>
  <circle cx="1.6" cy="6.4" r="0.4" fill="#FFFFFF"/>
  <circle cx="3.2" cy="6.4" r="0.4" fill="#FFFFFF"/>
  <circle cx="4.8" cy="6.4" r="0.4" fill="#FFFFFF"/>
  <circle cx="6.4" cy="6.4" r="0.4" fill="#FFFFFF"/>
  <circle cx="8" cy="6.4" r="0.4" fill="#FFFFFF"/>
  <circle cx="9.6" cy="6.4" r="0.4" fill="#FFFFFF"/>
  <circle cx="11.2" cy="6.4" r="0.4" fill="#FFFFFF"/>
  <circle cx="1.6" cy="8" r="0.4" fill="#FFFFFF"/>
  <circle cx="3.2" cy="8" r="0.4" fill="#FFFFFF"/>
  <circle cx="4.8" cy="8" r="0.4" fill="#FFFFFF"/>
  <circle cx="6.4" cy="8" r="0.4" fill="#FFFFFF"/>
  <circle cx="8" cy="8" r="0.4" fill="#FFFFFF"/>
  <circle cx="9.6" cy="8" r="0.4" fill="#FFFFFF"/>
  <circle cx="11.2" cy="8" r="0.4" fill="#FFFFFF"/>
</svg>

